<mxfile host="65bd71144e">
    <diagram id="wEXRbqUsqn06OVa4fFU8" name="Page-1">
        <mxGraphModel dx="2484" dy="1510" grid="1" gridSize="10" guides="1" tooltips="1" connect="1" arrows="1" fold="1" page="1" pageScale="1" pageWidth="850" pageHeight="1100" math="0" shadow="0">
            <root>
                <mxCell id="0"/>
                <mxCell id="1" parent="0"/>
                <mxCell id="2" value=":Customer" style="shape=umlLifeline;perimeter=lifelinePerimeter;whiteSpace=wrap;html=1;container=1;collapsible=0;recursiveResize=0;outlineConnect=0;fontSize=18;" parent="1" vertex="1">
                    <mxGeometry x="70" y="50" width="100" height="710" as="geometry"/>
                </mxCell>
                <mxCell id="10" value="" style="html=1;points=[];perimeter=orthogonalPerimeter;fontSize=18;fillColor=#60a917;fontColor=#ffffff;strokeColor=#2D7600;" vertex="1" parent="2">
                    <mxGeometry x="45" y="60" width="8.68" height="520" as="geometry"/>
                </mxCell>
                <mxCell id="3" value=":Server" style="shape=umlLifeline;perimeter=lifelinePerimeter;whiteSpace=wrap;html=1;container=1;collapsible=0;recursiveResize=0;outlineConnect=0;fontSize=18;" parent="1" vertex="1">
                    <mxGeometry x="640" y="40" width="100" height="710" as="geometry"/>
                </mxCell>
                <mxCell id="5" value="" style="html=1;points=[];perimeter=orthogonalPerimeter;fontSize=18;fillColor=#60a917;fontColor=#ffffff;strokeColor=#2D7600;" parent="3" vertex="1">
                    <mxGeometry x="45" y="160" width="10" height="430" as="geometry"/>
                </mxCell>
                <mxCell id="6" value="HTTP Initial Request" style="html=1;verticalAlign=bottom;endArrow=block;entryX=0;entryY=0;exitX=1.055;exitY=0.173;exitDx=0;exitDy=0;exitPerimeter=0;fontSize=18;" parent="1" source="10" target="5" edge="1">
                    <mxGeometry relative="1" as="geometry">
                        <mxPoint x="130" y="200" as="sourcePoint"/>
                    </mxGeometry>
                </mxCell>
                <mxCell id="7" value="HTTP Response chunk N" style="html=1;verticalAlign=bottom;endArrow=open;dashed=1;endSize=8;fontSize=18;" parent="1" source="5" target="2" edge="1">
                    <mxGeometry relative="1" as="geometry">
                        <mxPoint x="140" y="630" as="targetPoint"/>
                        <Array as="points">
                            <mxPoint x="530" y="630"/>
                        </Array>
                    </mxGeometry>
                </mxCell>
                <mxCell id="8" value="HTTP Response chunk 1" style="html=1;verticalAlign=bottom;endArrow=open;dashed=1;endSize=8;exitX=0;exitY=0.95;fontSize=18;" parent="1" edge="1" target="2">
                    <mxGeometry relative="1" as="geometry">
                        <mxPoint x="130" y="430" as="targetPoint"/>
                        <mxPoint x="685.5" y="429.99999999999955" as="sourcePoint"/>
                    </mxGeometry>
                </mxCell>
                <mxCell id="9" value="HTTP Response chunk 2" style="html=1;verticalAlign=bottom;endArrow=open;dashed=1;endSize=8;exitX=0;exitY=0.95;fontSize=18;" parent="1" edge="1" target="10">
                    <mxGeometry relative="1" as="geometry">
                        <mxPoint x="130" y="480" as="targetPoint"/>
                        <mxPoint x="685.5" y="479.99999999999955" as="sourcePoint"/>
                    </mxGeometry>
                </mxCell>
            </root>
        </mxGraphModel>
    </diagram>
</mxfile>